<mxfile host="app.diagrams.net" modified="2024-06-25T12:11:45.501Z" agent="Mozilla/5.0 (Windows NT 10.0; Win64; x64; rv:127.0) Gecko/20100101 Firefox/127.0" version="24.6.2" etag="QYclkORxKZvrakkobcT-" type="github">
  <diagram name="Page-1" id="PaMFYt4NiKCB2jgUaVpV">
    <mxGraphModel>
      <root>
        <mxCell id="0" />
        <mxCell id="1" parent="0" />
      </root>
    </mxGraphModel>
  </diagram>
</mxfile>
